<?xml version="1.0" encoding="UTF-8"?>
<svg xmlns="http://www.w3.org/2000/svg" xmlns:xlink="http://www.w3.org/1999/xlink" viewBox="0 0 60 60" width="60px" height="60px">
<g id="surface15934797">
<path style=" stroke:none;fill-rule:nonzero;fill:rgb(92.54902%,94.117647%,94.509804%);fill-opacity:1;" d="M 30.367188 6 C 23.640625 6 16.167969 8.515625 14.597656 16.742188 C 14.429688 17.617188 15.042969 18.066406 15.621094 18.195312 L 22.449219 18.890625 C 23.089844 18.855469 23.601562 18.261719 23.726562 17.628906 C 24.316406 14.792969 26.714844 13.394531 29.40625 13.394531 C 30.859375 13.394531 32.507812 13.9375 33.367188 15.226562 C 34.359375 16.664062 34.195312 18.621094 34.195312 20.285156 L 34.195312 21.230469 C 30.097656 21.6875 24.753906 21.964844 20.921875 23.632812 C 16.492188 25.527344 13.386719 29.390625 13.386719 35.070312 C 13.386719 42.339844 18.035156 46.003906 23.984375 46.003906 C 29.011719 46.003906 31.722656 44.796875 35.601562 40.886719 C 36.882812 42.726562 37.339844 43.628906 39.6875 45.5625 C 40.214844 45.84375 40.882812 45.789062 41.347656 45.375 L 41.347656 45.4375 C 42.757812 44.195312 45.328125 41.964844 46.769531 40.761719 C 47.34375 40.292969 47.21875 39.5625 46.769531 38.925781 C 45.476562 37.160156 44.152344 35.695312 44.152344 32.414062 L 44.152344 21.542969 C 44.152344 16.925781 44.464844 12.652344 41.027344 9.472656 C 38.3125 6.898438 33.804688 6 30.367188 6 Z M 32.28125 26.851562 C 32.917969 26.808594 33.554688 26.851562 34.195312 26.851562 L 34.195312 28.367188 C 34.199219 31.09375 34.304688 33.335938 32.917969 35.761719 C 31.792969 37.730469 29.988281 38.921875 28.003906 38.921875 C 25.292969 38.921875 23.722656 36.890625 23.722656 33.863281 C 23.722656 28.652344 27.820312 27.140625 32.28125 26.851562 Z M 52.160156 44.441406 C 50.34375 44.46875 48.210938 44.847656 46.582031 45.980469 C 46.082031 46.328125 46.15625 46.820312 46.710938 46.753906 C 48.546875 46.535156 52.597656 46.023438 53.328125 46.945312 C 54.054688 47.871094 52.523438 51.664062 51.839844 53.363281 C 51.632812 53.875 52.082031 54.074219 52.550781 53.683594 C 55.601562 51.15625 56.417969 45.914062 55.792969 45.144531 C 55.484375 44.769531 53.980469 44.414062 52.160156 44.441406 Z M 4.355469 45.402344 C 3.976562 45.453125 3.828125 45.945312 4.226562 46.304688 C 11.011719 52.367188 19.953125 56 29.910156 56 C 37.011719 56 45.300781 53.796875 50.992188 49.640625 C 51.933594 48.949219 51.113281 47.886719 50.152344 48.292969 C 43.773438 50.972656 36.800781 52.273438 30.496094 52.273438 C 21.144531 52.273438 12.128906 49.746094 4.8125 45.53125 C 4.652344 45.4375 4.480469 45.386719 4.355469 45.402344 Z M 4.355469 45.402344 "/>
</g>
</svg>
