<?xml version="1.0" encoding="UTF-8"?>
<svg xmlns="http://www.w3.org/2000/svg" xmlns:xlink="http://www.w3.org/1999/xlink" viewBox="0 0 64 64" width="64px" height="64px">
<g id="surface15932048">
<path style=" stroke:none;fill-rule:nonzero;fill:rgb(92.54902%,94.117647%,94.509804%);fill-opacity:1;" d="M 60 18.429688 C 60 18.773438 59.726562 19.046875 59.375 19.046875 L 56.015625 19.046875 L 40.78125 51.476562 C 40.679688 51.695312 40.460938 51.835938 40.226562 51.835938 C 40.21875 51.835938 40.21875 51.835938 40.21875 51.835938 C 39.976562 51.835938 39.765625 51.703125 39.65625 51.492188 L 32.429688 37.15625 L 24.625 51.515625 C 24.515625 51.71875 24.3125 51.835938 24.0625 51.835938 C 23.828125 51.828125 23.617188 51.695312 23.515625 51.484375 L 8.109375 19.046875 L 4.625 19.046875 C 4.28125 19.046875 4 18.773438 4 18.429688 L 4 16.78125 C 4 16.4375 4.28125 16.164062 4.625 16.164062 L 17.046875 16.164062 C 17.390625 16.164062 17.671875 16.4375 17.671875 16.78125 L 17.671875 18.429688 C 17.671875 18.773438 17.390625 19.046875 17.046875 19.046875 L 14.375 19.046875 L 25.007812 43.570312 L 30.539062 33.234375 L 23.523438 19.054688 L 21.835938 19.054688 C 21.492188 19.054688 21.210938 18.773438 21.210938 18.429688 L 21.210938 16.789062 C 21.210938 16.445312 21.492188 16.164062 21.835938 16.164062 L 31.03125 16.164062 C 31.375 16.164062 31.648438 16.445312 31.648438 16.789062 L 31.648438 18.429688 C 31.648438 18.773438 31.375 19.046875 31.03125 19.046875 L 29.40625 19.046875 L 33.445312 27.875 L 38.25 19.046875 L 35.304688 19.046875 C 34.953125 19.046875 34.679688 18.773438 34.679688 18.429688 L 34.679688 16.789062 C 34.679688 16.445312 34.953125 16.164062 35.304688 16.164062 L 44.234375 16.164062 C 44.578125 16.164062 44.851562 16.445312 44.851562 16.789062 L 44.851562 18.429688 C 44.851562 18.773438 44.578125 19.046875 44.234375 19.046875 L 42.273438 19.046875 L 35.265625 31.789062 L 40.976562 43.539062 L 52 19.046875 L 48.507812 19.046875 C 48.164062 19.046875 47.882812 18.773438 47.882812 18.429688 L 47.882812 16.789062 C 47.882812 16.445312 48.164062 16.164062 48.507812 16.164062 L 59.375 16.164062 C 59.726562 16.164062 60 16.445312 60 16.789062 Z M 60 18.429688 "/>
</g>
</svg>
